<?xml version="1.0" encoding="utf-8"?>
<!-- Generator: Adobe Illustrator 24.2.3, SVG Export Plug-In . SVG Version: 6.00 Build 0)  -->
<svg version="1.1" id="Capa_1" xmlns="http://www.w3.org/2000/svg" xmlns:xlink="http://www.w3.org/1999/xlink" x="0px" y="0px"
	 viewBox="0 0 841.89 595.28" style="enable-background:new 0 0 841.89 595.28;" xml:space="preserve">
<style type="text/css">
	.st0{fill:#FFFFFF;}
	.st1{fill:#FFFFFF;}
</style>
<g>
	<g>
		<g>
			<path class="st0" d="M314.64,198.67c-10.29-10.38-24.5-15.65-42.31-15.65c-26.99,0.33-46.03,10.24-56.72,29.48
				c-3.73-8.01-9.26-14.57-16.51-19.57c-9.55-6.58-21.59-9.91-35.82-9.91c-22.78,0.3-39.87,7.45-50.99,21.28v-20.48H79.22v147.4
				h33.07v-72.77c0-13.14,3.75-24.01,11.15-32.28c7.42-8.3,17.32-12.5,30.18-12.83c10.96,0,19.53,3.03,25.45,8.99
				c6.01,6.06,8.94,14.32,8.94,25.26v83.64h33.35v-72.77c0-13.15,3.71-24.02,11.02-32.3c7.32-8.29,17.17-12.48,30.02-12.81
				c10.94,0,19.22,2.95,25.33,9.01c6.09,6.06,9.06,14.32,9.06,25.24v83.64h33.35v-90.26C330.12,223.28,324.92,209.05,314.64,198.67
				L314.64,198.67z"/>
			<path class="st0" d="M411.87,290.08l-44.1-106.26h-35.18l62.36,142.17l-4.88,10.94c-4.95,10.7-12.04,15.91-21.68,15.91
				c-5.88,0-11.82-2.02-17.66-5.99l-3.24-2.21l-14.63,25.49l2.51,1.94c5.1,3.93,10.49,6.89,16.03,8.78
				c5.54,1.89,11.72,2.84,18.38,2.84c11.08,0,20.89-2.99,29.16-8.89l0,0c8.19-5.85,14.81-14.56,19.69-25.92l69.27-165.04h-34.3
				L411.87,290.08z"/>
			<path class="st0" d="M674.56,252.03h53.32v37.13c-7.13,4.04-14.89,7.26-23.1,9.58c-8.87,2.52-17.72,3.8-26.28,3.8
				c-14.58,0-28.17-3.19-40.38-9.5c-12.19-6.28-21.98-14.91-29.11-25.64c-7.08-10.64-10.67-22.41-10.67-35.01
				c0-12.59,3.54-24.33,10.52-34.88c7.03-10.63,16.76-19.15,28.93-25.35c12.22-6.22,25.81-9.37,40.4-9.37
				c11.09,0,21.95,1.89,32.28,5.62c10.33,3.73,19.7,9.05,27.87,15.79l2.71,2.24l21.63-24.51l-3.02-2.38
				c-10.62-8.35-23.18-15.02-37.33-19.84c-14.13-4.81-28.98-7.25-44.13-7.25c-21.38,0-41.19,4.41-58.88,13.12
				c-17.76,8.75-31.97,20.88-42.23,36.08c-10.32,15.28-15.55,32.34-15.55,50.72c0,18.37,5.17,35.51,15.38,50.96
				c10.16,15.39,24.21,27.67,41.76,36.5c17.49,8.81,37,13.27,57.99,13.27c14.52,0,29.48-2.34,44.48-6.94
				c15.01-4.61,28.22-10.89,39.26-18.68l1.54-1.08V220.9h-87.39V252.03z"/>
		</g>
		<g>
			<g>
				<path class="st0" d="M526.6,115.29c-19.71,0-35.68,15.98-35.68,35.68s35.68,72.71,35.68,72.71s35.68-53.01,35.68-72.71
					S546.3,115.29,526.6,115.29z M526.6,168.48c-9.67,0-17.51-7.84-17.51-17.51s7.84-17.51,17.51-17.51
					c9.67,0,17.51,7.84,17.51,17.51S536.26,168.48,526.6,168.48z"/>
			</g>
		</g>
	</g>
	<g>
		<path class="st0" d="M121.53,434.88c-6.04,0.08-10.21,2.5-12.41,7.2c-0.78-2.08-2.04-3.75-3.76-4.99
			c-2.03-1.46-4.59-2.21-7.63-2.21c-5.29,0.07-9.14,1.95-11.47,5.58v-5.4h-6.54V468h6.54v-16.26c0-3.1,0.85-5.67,2.52-7.64
			c1.66-1.95,3.96-2.97,6.83-3.05c2.48,0,4.43,0.73,5.79,2.16c1.36,1.44,2.05,3.47,2.05,6.05V468h6.6v-16.26
			c0-3.11,0.84-5.67,2.5-7.64c1.64-1.95,3.93-2.97,6.8-3.05c2.44,0,4.38,0.73,5.76,2.16c1.38,1.44,2.08,3.47,2.08,6.04V468h6.6
			v-20.25c0-3.93-1.1-7.1-3.27-9.39C128.34,436.05,125.32,434.88,121.53,434.88z"/>
		<path class="st0" d="M172.74,459.92l-9.85-24.86h-6.92l13.45,32.12l-1.13,2.66c-1.14,2.59-2.79,3.85-5.03,3.85
			c-1.35,0-2.71-0.48-4.03-1.43l-0.42-0.3l-2.85,5.2l0.3,0.24c1.09,0.88,2.23,1.53,3.4,1.95c1.17,0.42,2.49,0.63,3.91,0.63
			c2.35,0,4.43-0.66,6.17-1.97c1.73-1.3,3.14-3.24,4.18-5.77l14.9-37.19h-6.74L172.74,459.92z"/>
		<path class="st0" d="M234.47,439.88c-1.05-1.4-2.36-2.53-3.9-3.38c-1.98-1.08-4.3-1.63-6.91-1.63c-2.94,0-5.57,0.67-7.83,2
			c-2.26,1.33-4.04,3.2-5.29,5.57c-1.24,2.36-1.87,5.1-1.87,8.14c0,3.09,0.63,5.87,1.87,8.26c1.24,2.41,3.02,4.31,5.29,5.66
			c2.26,1.35,4.89,2.03,7.83,2.03c2.57,0,4.88-0.56,6.88-1.66c1.55-0.86,2.87-2,3.93-3.41v2.98c0,2.96-0.95,5.36-2.82,7.11
			c-1.88,1.77-4.45,2.66-7.62,2.66c-1.95,0-3.78-0.31-5.41-0.91c-1.64-0.61-3.25-1.55-4.77-2.8l-0.41-0.33l-2.97,4.92l0.33,0.25
			c4.14,3.03,8.67,4.57,13.47,4.57c3.32,0,6.28-0.64,8.8-1.89c2.53-1.26,4.52-3.11,5.91-5.47c1.39-2.36,2.09-5.15,2.09-8.28v-29.21
			h-6.6V439.88z M233.23,445.38c0.83,1.56,1.25,3.37,1.25,5.39c0,1.97-0.42,3.77-1.25,5.33c-0.83,1.55-1.98,2.79-3.44,3.67
			c-1.45,0.88-3.15,1.33-5.03,1.33c-2.88,0-5.26-0.97-7.06-2.88c-1.81-1.92-2.74-4.43-2.78-7.44c0-2.01,0.43-3.82,1.28-5.38
			c0.84-1.55,2.02-2.79,3.5-3.67c1.48-0.88,3.18-1.33,5.07-1.33c1.88,0,3.58,0.45,5.03,1.33
			C231.24,442.6,232.4,443.83,233.23,445.38z"/>
		<rect x="269.65" y="422.16" class="st0" width="6.54" height="45.83"/>
		<path class="st0" d="M327.99,436.99c-2.54-1.4-5.48-2.11-8.73-2.11c-3.29,0-6.25,0.71-8.79,2.11c-2.54,1.41-4.56,3.39-5.99,5.89
			c-1.43,2.5-2.15,5.4-2.15,8.61c0,3.25,0.72,6.17,2.15,8.67c1.43,2.5,3.44,4.49,5.99,5.89c2.54,1.4,5.49,2.11,8.79,2.11
			c3.25,0,6.19-0.71,8.73-2.11c2.55-1.41,4.56-3.4,5.99-5.93c1.42-2.52,2.15-5.43,2.15-8.64c0-3.21-0.72-6.11-2.15-8.61
			C332.55,440.38,330.53,438.4,327.99,436.99z M324.57,461.12c-1.56,0.9-3.34,1.36-5.31,1.36c-2.01,0-3.81-0.46-5.37-1.36
			c-1.55-0.9-2.78-2.19-3.64-3.84c-0.87-1.66-1.31-3.59-1.31-5.72c0-2.09,0.44-3.99,1.31-5.63c0.87-1.63,2.09-2.93,3.65-3.85
			c1.56-0.92,3.36-1.39,5.37-1.39c1.97,0,3.75,0.47,5.31,1.39c1.55,0.92,2.78,2.21,3.65,3.85c0.87,1.64,1.31,3.54,1.31,5.63
			c0,2.14-0.44,4.06-1.31,5.72C327.35,458.93,326.13,460.23,324.57,461.12z"/>
		<path class="st0" d="M388.45,437c-2.4-1.41-5.17-2.12-8.22-2.12c-2.73,0-5.18,0.59-7.27,1.75c-1.65,0.91-3.04,2.15-4.14,3.68
			v-18.15h-6.54V468h6.54v-5.25c1.11,1.54,2.51,2.77,4.17,3.68c2.11,1.16,4.59,1.75,7.36,1.75c3.05,0,5.81-0.7,8.19-2.09
			c2.39-1.39,4.26-3.37,5.56-5.87c1.3-2.5,1.96-5.39,1.96-8.59c0-3.25-0.67-6.17-1.99-8.69C392.75,440.4,390.85,438.41,388.45,437z
			 M389.4,451.44c0,2.1-0.44,4-1.31,5.66c-0.86,1.65-2.09,2.96-3.64,3.88c-1.56,0.92-3.34,1.39-5.31,1.39
			c-1.97,0-3.75-0.47-5.31-1.39c-1.56-0.92-2.79-2.22-3.68-3.85c-0.89-1.64-1.34-3.55-1.34-5.69c0-2.05,0.45-3.94,1.34-5.6
			c0.88-1.65,2.12-2.96,3.68-3.88c1.56-0.92,3.34-1.39,5.31-1.39c1.96,0,3.74,0.47,5.28,1.39c1.53,0.92,2.76,2.23,3.65,3.88
			C388.95,447.5,389.4,449.38,389.4,451.44z"/>
		<path class="st0" d="M444.41,437.93c-2.25-2.03-5.47-3.05-9.57-3.05c-2.74,0-5.14,0.34-7.14,1.02c-1.98,0.67-4.16,1.78-6.49,3.29
			l-0.37,0.24l2.84,4.66l0.4-0.27c3.26-2.24,6.49-3.37,9.61-3.37c2.54,0,4.48,0.58,5.78,1.73c1.3,1.15,1.93,2.75,1.93,4.9v1.06
			h-9.72c-3.88,0.04-6.96,0.94-9.15,2.67c-2.22,1.76-3.35,4.17-3.35,7.17c0,1.93,0.48,3.7,1.43,5.26c0.95,1.56,2.32,2.8,4.06,3.68
			c1.73,0.88,3.77,1.32,6.05,1.32c4.67,0,8.28-1.32,10.75-3.94v3.7h6.48l-0.06-21.53C447.84,442.84,446.67,439.97,444.41,437.93z
			 M438.3,460.84c-1.75,1.21-3.91,1.83-6.43,1.83c-1.99,0-3.58-0.46-4.75-1.36c-1.14-0.89-1.7-2.06-1.7-3.58
			c0-1.5,0.53-2.56,1.63-3.25c1.15-0.72,2.98-1.08,5.42-1.08h8.93l0.01,2.68C441.07,458.07,440.05,459.63,438.3,460.84z"/>
		<rect x="476.28" y="422.16" class="st0" width="6.54" height="45.83"/>
		<polygon class="st0" points="522.87,460.64 513.56,435.06 506.58,435.06 519.47,468 525.96,468 538.79,435.06 532.12,435.06 		"/>
		<path class="st0" d="M575.18,434.88c-3.17,0-6.04,0.72-8.52,2.15c-2.48,1.43-4.45,3.42-5.83,5.93c-1.38,2.5-2.09,5.39-2.09,8.6
			s0.7,6.12,2.09,8.63c1.39,2.53,3.36,4.51,5.87,5.9c2.5,1.38,5.39,2.09,8.61,2.09c2.75,0,5.3-0.48,7.56-1.43
			c2.27-0.95,4.24-2.31,5.85-4.04l0.29-0.31l-3.71-3.86l-0.33,0.34c-1.16,1.2-2.55,2.14-4.12,2.8c-1.57,0.66-3.29,0.99-5.12,0.99
			c-2.74,0-5.08-0.82-6.94-2.43c-1.74-1.51-2.87-3.54-3.36-6.05h25.18l0.04-0.41c0.04-0.43,0.06-1.05,0.06-1.86
			c0-5.29-1.32-9.5-3.93-12.5C584.16,436.41,580.25,434.88,575.18,434.88z M584.68,448.92h-19.33c0.41-2.5,1.47-4.54,3.14-6.05
			c1.78-1.61,4.05-2.43,6.75-2.43c2.77,0,5.03,0.8,6.71,2.39C583.53,444.33,584.45,446.38,584.68,448.92z"/>
		<path class="st0" d="M634.62,434.88c-5.41,0.07-9.34,1.97-11.71,5.65v-5.47h-6.54V468h6.54l0-17.55c0.23-2.74,1.22-5,2.93-6.71
			c1.7-1.7,3.95-2.58,6.67-2.62c2.53,0,4.53,0.72,5.94,2.14c1.42,1.42,2.14,3.44,2.14,6.01V468h6.54v-20.25
			c0-3.98-1.12-7.15-3.34-9.43C641.58,436.03,638.49,434.88,634.62,434.88z"/>
		<path class="st0" d="M697.81,451.26c0,3.1-0.85,5.68-2.53,7.67c-1.68,1.99-3.9,2.98-6.77,3.02c-2.44,0-4.38-0.72-5.76-2.13
			c-1.38-1.42-2.08-3.44-2.08-6.01v-18.74h-6.6v20.25c0,3.98,1.1,7.15,3.27,9.42c2.18,2.28,5.22,3.44,9.05,3.44
			c5.26-0.07,9.09-1.97,11.41-5.63V468h6.6v-32.94h-6.6V451.26z"/>
		<path class="st0" d="M758.24,439.42c-2.62-3.02-6.53-4.55-11.6-4.55c-3.17,0-6.04,0.72-8.52,2.15c-2.48,1.43-4.45,3.42-5.83,5.93
			c-1.38,2.5-2.09,5.39-2.09,8.6s0.7,6.12,2.09,8.63c1.39,2.53,3.36,4.51,5.87,5.9c2.5,1.38,5.39,2.09,8.61,2.09
			c2.75,0,5.3-0.48,7.56-1.43c2.27-0.95,4.24-2.31,5.85-4.04l0.29-0.31l-3.71-3.86l-0.33,0.34c-1.16,1.2-2.55,2.14-4.12,2.8
			c-1.57,0.66-3.29,0.99-5.12,0.99c-2.74,0-5.08-0.82-6.94-2.43c-1.74-1.51-2.87-3.54-3.36-6.05h25.18l0.04-0.41
			c0.04-0.43,0.06-1.05,0.06-1.86C762.16,446.63,760.84,442.42,758.24,439.42z M756.14,448.92h-19.33c0.41-2.5,1.47-4.54,3.14-6.05
			c1.78-1.61,4.05-2.43,6.75-2.43c2.77,0,5.03,0.8,6.71,2.39C754.99,444.33,755.91,446.38,756.14,448.92z"/>
	</g>
</g>
</svg>
